<?xml version="1.0" encoding="UTF-8"?>
<!DOCTYPE svg  PUBLIC '-//W3C//DTD SVG 1.1//EN'  'http://www.w3.org/Graphics/SVG/1.1/DTD/svg11.dtd'>
<svg enableBackground="new 0 0 445.199 445.199" version="1.1" viewBox="0 0 445.2 445.2" xmlSpace="preserve" xmlns="http://www.w3.org/2000/svg">
		<path d="m127.21 310.61h190.78c1.32 0 2.568-0.604 3.389-1.643 0.818-1.035 1.119-2.39 0.814-3.675-0.164-0.685-4.059-16.931-11.439-33.459-10.445-23.392-22.441-35.251-35.65-35.251-5.137 0-10.315 1.848-15.39 5.495-0.084 0.06-0.165 0.122-0.245 0.188-2.949 2.459-5.785 5.422-8.789 8.561-7.803 8.154-15.871 16.586-26.326 16.587-5.336 1e-3 -10.967-2.132-17.214-6.521-5.665-3.979-11.953-5.996-18.689-5.996-16.587 0-32.813 12.416-43.505 22.832-11.056 10.771-19.971 23.133-21.649 26.738-0.622 1.338-0.519 2.899 0.274 4.144 0.791 1.246 2.164 2 3.64 2z"/>
		<path d="m435.2 343.06h-42.138v-280.92c0-5.523-4.477-10-10-10h-280.92v-42.139c0-5.523-4.477-10-10-10h-30c-5.523 0-10 4.477-10 10v42.139h-42.139c-5.523 0-10 4.477-10 10v30c0 5.523 4.477 10 10 10h42.138v280.92c0 5.523 4.477 10 10 10h280.92v42.139c0 5.523 4.477 10 10 10h30c5.523 0 10-4.477 10-10v-42.139h42.139c5.523 0 10-4.477 10-10v-30c0-5.522-4.476-9.999-10-9.999zm-92.138-240.92v240.92h-240.92v-240.92h240.92z"/>
		<circle cx="270.86" cy="175.62" r="23.999"/>
</svg>
