<svg xmlns="http://www.w3.org/2000/svg" version="1.1" xmlns:xlink="http://www.w3.org/1999/xlink" xmlns:svgjs="http://svgjs.com/svgjs" width="1440" height="560" preserveAspectRatio="none" viewBox="0 0 1440 560"><g mask="url(&quot;#SvgjsMask1078&quot;)" fill="none"><rect width="1440" height="560" x="0" y="0" fill="rgba(255, 255, 255, 1)"></rect><g mask="url(&quot;#SvgjsMask1079&quot;)"><path d="M726 594L726 550" stroke="rgba(44, 133, 71, 1)" stroke-width="7.33"></path><path d="M715 550 a11 11 0 1 0 22 0 a11 11 0 1 0 -22 0z" fill="rgba(44, 133, 71, 1)"></path><path d="M726 374L726 330L726 286L682 242M682 506L682 462L682 418L682 374M726 462L770 418M682 594L682 550L682 506L726 462L726 418L726 374L770 330" stroke="rgba(44, 133, 71, 1)" stroke-width="7.33"></path><path d="M759 330 a11 11 0 1 0 22 0 a11 11 0 1 0 -22 0zM671 242 a11 11 0 1 0 22 0 a11 11 0 1 0 -22 0zM671 374 a11 11 0 1 0 22 0 a11 11 0 1 0 -22 0zM759 418 a11 11 0 1 0 22 0 a11 11 0 1 0 -22 0z" fill="rgba(44, 133, 71, 1)"></path><path d="M770 550L770 506L770 462M770 594L770 550L726 506" stroke="#3a7cc3" stroke-width="7.33"></path><path d="M715 506 a11 11 0 1 0 22 0 a11 11 0 1 0 -22 0zM759 462 a11 11 0 1 0 22 0 a11 11 0 1 0 -22 0z" fill="#3a7cc3"></path><path d="M638 330L682 286M638 594L638 550L638 506L638 462L638 418L638 374L638 330L638 286" stroke="rgba(44, 133, 71, 1)" stroke-width="7.33"></path><path d="M627 286 a11 11 0 1 0 22 0 a11 11 0 1 0 -22 0zM671 286 a11 11 0 1 0 22 0 a11 11 0 1 0 -22 0z" fill="rgba(44, 133, 71, 1)"></path><path d="M814 462L858 418L858 374M814 418L814 374M814 506L858 462M814 594L814 550L814 506L814 462L814 418L770 374" stroke="#3a7cc3" stroke-width="7.33"></path><path d="M759 374 a11 11 0 1 0 22 0 a11 11 0 1 0 -22 0zM847 374 a11 11 0 1 0 22 0 a11 11 0 1 0 -22 0zM803 374 a11 11 0 1 0 22 0 a11 11 0 1 0 -22 0zM847 462 a11 11 0 1 0 22 0 a11 11 0 1 0 -22 0z" fill="#3a7cc3"></path><path d="M594 418L550 374L550 330L550 286M594 550L550 506L550 462L550 418M594 594L594 550L594 506L594 462L594 418L594 374L594 330L594 286" stroke="#dd1133" stroke-width="7.33"></path><path d="M583 286 a11 11 0 1 0 22 0 a11 11 0 1 0 -22 0zM539 286 a11 11 0 1 0 22 0 a11 11 0 1 0 -22 0zM539 418 a11 11 0 1 0 22 0 a11 11 0 1 0 -22 0z" fill="#dd1133"></path><path d="M858 594L858 550" stroke="rgba(44, 133, 71, 1)" stroke-width="7.33"></path><path d="M847 550 a11 11 0 1 0 22 0 a11 11 0 1 0 -22 0z" fill="rgba(44, 133, 71, 1)"></path><path d="M506 506L462 462L462 418L462 374M550 594L506 550L506 506L506 462L506 418L506 374" stroke="#dd1133" stroke-width="7.33"></path><path d="M495 374 a11 11 0 1 0 22 0 a11 11 0 1 0 -22 0zM451 374 a11 11 0 1 0 22 0 a11 11 0 1 0 -22 0z" fill="#dd1133"></path><path d="M902 594L902 550L902 506" stroke="#3a7cc3" stroke-width="7.33"></path><path d="M891 506 a11 11 0 1 0 22 0 a11 11 0 1 0 -22 0z" fill="#3a7cc3"></path><path d="M462 594L462 550" stroke="#dd1133" stroke-width="7.33"></path><path d="M451 550 a11 11 0 1 0 22 0 a11 11 0 1 0 -22 0z" fill="#dd1133"></path><path d="M946 374L990 330L990 286M946 286L902 242M946 418L990 374L1034 330M990 594L946 550L946 506L946 462L946 418L946 374L946 330L946 286L946 242" stroke="rgba(44, 133, 71, 1)" stroke-width="7.33"></path><path d="M935 242 a11 11 0 1 0 22 0 a11 11 0 1 0 -22 0zM979 286 a11 11 0 1 0 22 0 a11 11 0 1 0 -22 0zM891 242 a11 11 0 1 0 22 0 a11 11 0 1 0 -22 0zM1023 330 a11 11 0 1 0 22 0 a11 11 0 1 0 -22 0z" fill="rgba(44, 133, 71, 1)"></path><path d="M418 418L374 374L374 330L374 286L374 242M418 594L418 550L418 506L418 462L418 418L418 374" stroke="#dd1133" stroke-width="7.33"></path><path d="M407 374 a11 11 0 1 0 22 0 a11 11 0 1 0 -22 0zM363 242 a11 11 0 1 0 22 0 a11 11 0 1 0 -22 0z" fill="#dd1133"></path><path d="M990 550L1034 506L1034 462M1034 594L990 550L990 506L990 462" stroke="#dd1133" stroke-width="7.33"></path><path d="M979 462 a11 11 0 1 0 22 0 a11 11 0 1 0 -22 0zM1023 462 a11 11 0 1 0 22 0 a11 11 0 1 0 -22 0z" fill="#dd1133"></path><path d="M374 462L374 418M374 506L330 462L286 418M374 594L374 550L374 506L374 462L330 418" stroke="#3a7cc3" stroke-width="7.33"></path><path d="M319 418 a11 11 0 1 0 22 0 a11 11 0 1 0 -22 0zM363 418 a11 11 0 1 0 22 0 a11 11 0 1 0 -22 0zM275 418 a11 11 0 1 0 22 0 a11 11 0 1 0 -22 0z" fill="#3a7cc3"></path></g></g><defs><mask id="SvgjsMask1078"><rect width="1440" height="560" fill="#ffffff"></rect></mask><mask id="SvgjsMask1079"><rect width="1440" height="560" fill="white"></rect><path d="M720.5 550 a5.5 5.5 0 1 0 11 0 a5.5 5.5 0 1 0 -11 0z" fill="black"></path><path d="M764.5 330 a5.5 5.5 0 1 0 11 0 a5.5 5.5 0 1 0 -11 0zM676.5 242 a5.5 5.5 0 1 0 11 0 a5.5 5.5 0 1 0 -11 0zM676.5 374 a5.5 5.5 0 1 0 11 0 a5.5 5.5 0 1 0 -11 0zM764.5 418 a5.5 5.5 0 1 0 11 0 a5.5 5.5 0 1 0 -11 0z" fill="black"></path><path d="M720.5 506 a5.5 5.5 0 1 0 11 0 a5.5 5.5 0 1 0 -11 0zM764.5 462 a5.5 5.5 0 1 0 11 0 a5.5 5.5 0 1 0 -11 0z" fill="black"></path><path d="M632.5 286 a5.5 5.5 0 1 0 11 0 a5.5 5.5 0 1 0 -11 0zM676.5 286 a5.5 5.5 0 1 0 11 0 a5.5 5.5 0 1 0 -11 0z" fill="black"></path><path d="M764.5 374 a5.5 5.5 0 1 0 11 0 a5.5 5.5 0 1 0 -11 0zM852.5 374 a5.5 5.5 0 1 0 11 0 a5.5 5.5 0 1 0 -11 0zM808.5 374 a5.5 5.5 0 1 0 11 0 a5.5 5.5 0 1 0 -11 0zM852.5 462 a5.5 5.5 0 1 0 11 0 a5.5 5.5 0 1 0 -11 0z" fill="black"></path><path d="M588.5 286 a5.5 5.5 0 1 0 11 0 a5.5 5.5 0 1 0 -11 0zM544.5 286 a5.5 5.5 0 1 0 11 0 a5.5 5.5 0 1 0 -11 0zM544.5 418 a5.5 5.5 0 1 0 11 0 a5.5 5.5 0 1 0 -11 0z" fill="black"></path><path d="M852.5 550 a5.5 5.5 0 1 0 11 0 a5.5 5.5 0 1 0 -11 0z" fill="black"></path><path d="M500.5 374 a5.5 5.5 0 1 0 11 0 a5.5 5.5 0 1 0 -11 0zM456.5 374 a5.5 5.5 0 1 0 11 0 a5.5 5.5 0 1 0 -11 0z" fill="black"></path><path d="M896.5 506 a5.5 5.5 0 1 0 11 0 a5.5 5.5 0 1 0 -11 0z" fill="black"></path><path d="M456.5 550 a5.5 5.5 0 1 0 11 0 a5.5 5.5 0 1 0 -11 0z" fill="black"></path><path d="M940.5 242 a5.5 5.5 0 1 0 11 0 a5.5 5.5 0 1 0 -11 0zM984.5 286 a5.5 5.5 0 1 0 11 0 a5.5 5.5 0 1 0 -11 0zM896.5 242 a5.5 5.5 0 1 0 11 0 a5.5 5.5 0 1 0 -11 0zM1028.5 330 a5.5 5.5 0 1 0 11 0 a5.5 5.5 0 1 0 -11 0z" fill="black"></path><path d="M412.5 374 a5.5 5.5 0 1 0 11 0 a5.5 5.5 0 1 0 -11 0zM368.5 242 a5.5 5.5 0 1 0 11 0 a5.5 5.5 0 1 0 -11 0z" fill="black"></path><path d="M984.5 462 a5.5 5.5 0 1 0 11 0 a5.5 5.5 0 1 0 -11 0zM1028.5 462 a5.5 5.5 0 1 0 11 0 a5.5 5.5 0 1 0 -11 0z" fill="black"></path><path d="M324.5 418 a5.5 5.5 0 1 0 11 0 a5.5 5.5 0 1 0 -11 0zM368.5 418 a5.5 5.5 0 1 0 11 0 a5.5 5.5 0 1 0 -11 0zM280.5 418 a5.5 5.5 0 1 0 11 0 a5.5 5.5 0 1 0 -11 0z" fill="black"></path></mask></defs></svg>
